HIERARCHY
ROOT Hips
{
	OFFSET 0.000000 0.000000 0.000000
	CHANNELS 6 Xposition Yposition Zposition Zrotation Xrotation Yrotation
	JOINT Spine
	{
		OFFSET 0.000000 -0.000004 21.938875
		CHANNELS 6 Xposition Yposition Zposition Zrotation Xrotation Yrotation
		JOINT Spine1
		{
			OFFSET 0.000000 -0.000008 49.643211
			CHANNELS 6 Xposition Yposition Zposition Zrotation Xrotation Yrotation
			JOINT Neck
			{
				OFFSET 0.000000 -0.000009 54.994152
				CHANNELS 6 Xposition Yposition Zposition Zrotation Xrotation Yrotation
				JOINT Head
				{
					OFFSET 0.000000 -5.350952 41.469833
					CHANNELS 6 Xposition Yposition Zposition Zrotation Xrotation Yrotation
					End Site
					{
						OFFSET 0.000000 -0.000009 53.509460
					}
				}
			}
			JOINT LeftShoulder
			{
				OFFSET 10.679572 1.167096 44.871422
				CHANNELS 6 Xposition Yposition Zposition Zrotation Xrotation Yrotation
				JOINT LeftArm
				{
					OFFSET 30.952639 0.000000 0.000000
					CHANNELS 6 Xposition Yposition Zposition Zrotation Xrotation Yrotation
					JOINT LeftForeArm
					{
						OFFSET 80.268616 0.000000 0.000000
						CHANNELS 6 Xposition Yposition Zposition Zrotation Xrotation Yrotation
						JOINT LeftHand
						{
							OFFSET 71.790054 0.000000 0.000000
							CHANNELS 6 Xposition Yposition Zposition Zrotation Xrotation Yrotation
							End Site
							{
								OFFSET 40.132099 0.000000 0.000000
							}
						}
					}
				}
			}
			JOINT RightShoulder
			{
				OFFSET -10.701397 1.167096 44.871422
				CHANNELS 6 Xposition Yposition Zposition Zrotation Xrotation Yrotation
				JOINT RightArm
				{
					OFFSET -30.952639 0.000000 0.000000
					CHANNELS 6 Xposition Yposition Zposition Zrotation Xrotation Yrotation
					JOINT RightForeArm
					{
						OFFSET -80.268616 0.000000 0.000000
						CHANNELS 6 Xposition Yposition Zposition Zrotation Xrotation Yrotation
						JOINT RightHand
						{
							OFFSET -71.790054 0.000000 0.000000
							CHANNELS 6 Xposition Yposition Zposition Zrotation Xrotation Yrotation
							End Site
							{
								OFFSET -40.132099 0.000000 0.000000
							}
						}
					}
				}
			}
		}
	}
	JOINT LeftUpLeg
	{
		OFFSET 26.754726 0.000000 0.000000
		CHANNELS 6 Xposition Yposition Zposition Zrotation Xrotation Yrotation
		JOINT LeftLeg
		{
			OFFSET 0.000000 0.000023 -139.250336
			CHANNELS 6 Xposition Yposition Zposition Zrotation Xrotation Yrotation
			JOINT LeftFoot
			{
				OFFSET 0.000000 0.000018 -111.863556
				CHANNELS 6 Xposition Yposition Zposition Zrotation Xrotation Yrotation
				JOINT LeftToeBase
				{
					OFFSET 0.000000 -40.132088 -17.390575
					CHANNELS 6 Xposition Yposition Zposition Zrotation Xrotation Yrotation
					End Site
					{
						OFFSET 0.000000 -10.701891 0.000000
					}
				}
			}
		}
	}
	JOINT RightUpLeg
	{
		OFFSET -26.754726 0.000000 0.000000
		CHANNELS 6 Xposition Yposition Zposition Zrotation Xrotation Yrotation
		JOINT RightLeg
		{
			OFFSET 0.000000 0.000023 -139.250336
			CHANNELS 6 Xposition Yposition Zposition Zrotation Xrotation Yrotation
			JOINT RightFoot
			{
				OFFSET 0.000000 0.000018 -111.863556
				CHANNELS 6 Xposition Yposition Zposition Zrotation Xrotation Yrotation
				JOINT RightToeBase
				{
					OFFSET 0.000000 -40.132088 -17.390575
					CHANNELS 6 Xposition Yposition Zposition Zrotation Xrotation Yrotation
					End Site
					{
						OFFSET 0.000000 -10.701891 0.000000
					}
				}
			}
		}
	}
}
MOTION
Frames: 8
Frame Time: 0.041667
-11.779257 22.058092 248.585388 86.351158 9.580895 -3.171432 0.000000 -0.000005 21.938902 -6.540308 -8.345492 -0.157194 -0.000002 -0.000009 49.643188 -2.080427 0.690882 -13.271418 0.000006 -0.000008 54.994141 -28.805175 15.447588 22.364724 0.000001 -5.350977 41.469810 -28.179945 14.078073 -35.372337 10.679572 1.167095 44.871384 -10.087424 0.673374 -15.907413 30.952621 -0.000003 -0.000006 -1.364960 16.010201 10.068788 80.268593 0.000000 -0.000040 0.339143 -26.356353 -14.384228 71.790123 -0.000004 -0.000009 -2.191971 -26.987759 37.764741 -10.701393 1.167096 44.871407 -6.563106 7.658276 6.621816 -30.952646 0.000008 -0.000019 19.071435 19.984497 -36.614779 -80.268593 -0.000019 -0.000024 62.738559 8.163894 18.583000 -71.790047 0.000002 0.000007 4.003299 -3.460623 -5.241584 26.754726 -0.000005 0.000013 -6.053276 -16.249017 -9.046186 -0.000009 0.000019 -139.250305 13.517355 30.170892 3.755720 0.000003 0.000028 -111.863571 19.099082 -12.190889 4.614343 -0.000019 -40.132092 -17.390574 -0.000003 -0.000002 -0.000001 -26.754726 -0.000001 0.000022 7.747886 -20.880776 11.380887 0.000000 0.000032 -139.250351 2.643131 37.213630 -7.180088 0.000004 0.000032 -111.863556 -2.157956 -20.611889 -5.266913 0.000001 -40.132088 -17.390594 -0.000000 0.000001 -0.000000 
-11.784837 22.926493 248.880798 86.113017 9.580180 -3.109379 -0.000002 -0.000008 21.938862 -6.532913 -8.404310 -0.242033 -0.000002 -0.000008 49.643219 -2.084857 0.624262 -13.030904 -0.000000 -0.000008 54.994194 -28.822988 15.559559 22.455476 -0.000015 -5.350955 41.469879 -28.297247 13.580391 -35.502750 10.679568 1.167095 44.871437 -10.130628 0.736527 -15.959314 30.952635 0.000000 -0.000013 -1.280249 15.872907 10.054485 80.268616 0.000024 0.000018 0.295932 -26.312025 -14.379078 71.790054 0.000008 -0.000013 -2.173534 -26.945153 37.884143 -10.701393 1.167096 44.871449 -6.540058 7.478843 6.833972 -30.952654 -0.000006 -0.000026 18.549148 19.950067 -36.155384 -80.268600 -0.000001 -0.000005 64.134998 7.672246 20.304165 -71.790092 0.000006 0.000016 4.213993 -5.512587 -8.224907 26.754721 -0.000002 -0.000008 -5.744838 -15.794642 -8.673301 -0.000009 0.000022 -139.250320 13.598933 29.117342 3.694602 0.000005 0.000019 -111.863556 19.300720 -12.179501 4.490598 -0.000017 -40.132092 -17.390594 0.000000 -0.000001 0.000000 -26.754728 -0.000004 -0.000021 7.931485 -20.745472 11.525762 -0.000002 0.000022 -139.250351 2.463105 36.841480 -6.972877 0.000001 0.000026 -111.863564 -1.966941 -20.191118 -5.532653 0.000001 -40.132088 -17.390577 0.000000 0.000002 0.000000 
-11.815059 23.816189 249.166229 85.904519 9.574962 -3.052672 -0.000001 -0.000006 21.938892 -6.542531 -8.429252 -0.338281 0.000005 -0.000009 49.643227 -2.098989 0.517716 -12.761711 0.000002 -0.000013 54.994167 -28.859168 15.664510 22.534691 0.000007 -5.350993 41.469810 -28.426424 13.114294 -35.598570 10.679568 1.167094 44.871422 -10.175643 0.797968 -16.039943 30.952637 -0.000007 0.000023 -1.356134 16.062585 10.157979 80.268585 0.000014 0.000024 0.388379 -26.475311 -14.483881 71.790077 -0.000004 -0.000040 -2.145532 -27.089905 37.971238 -10.701400 1.167096 44.871429 -6.406242 7.218151 7.072112 -30.952648 0.000006 -0.000008 17.671386 19.704112 -35.624129 -80.268631 -0.000021 0.000001 65.724834 7.166515 21.496981 -71.790077 0.000011 -0.000003 4.019732 -7.302851 -10.829034 26.754728 -0.000000 0.000024 -5.421585 -15.388925 -8.272203 -0.000007 0.000020 -139.250305 14.127375 28.107296 3.437279 -0.000009 0.000025 -111.863564 19.171076 -12.198025 4.058167 -0.000000 -40.132095 -17.390575 0.000002 -0.000000 0.000001 -26.754726 0.000001 0.000023 8.097072 -20.617281 11.643931 0.000000 0.000033 -139.250320 2.158610 36.494244 -6.619922 0.000001 0.000035 -111.863564 -1.699377 -19.774123 -5.832338 0.000000 -40.132088 -17.390575 -0.000000 -0.000000 -0.000000 
-11.858984 24.724642 249.469131 85.676718 9.572368 -3.006536 0.000001 0.000004 21.938860 -6.537764 -8.399355 -0.408361 0.000001 -0.000008 49.643219 -2.119381 0.311273 -12.530819 -0.000014 -0.000008 54.994122 -28.891297 15.783679 22.671582 -0.000014 -5.350979 41.469883 -28.541713 12.668763 -35.694982 10.679570 1.167095 44.871376 -10.169746 0.924041 -16.080449 30.952654 0.000001 0.000053 -1.218200 15.544891 10.051333 80.268600 0.000002 0.000007 0.272660 -26.234471 -14.331504 71.790077 -0.000010 0.000005 -2.145101 -26.862487 37.907765 -10.701402 1.167096 44.871391 -6.361645 7.080921 7.393377 -30.952658 -0.000008 -0.000011 16.874259 19.236873 -35.043546 -80.268639 -0.000030 -0.000036 67.281168 6.682270 22.592073 -71.790077 -0.000008 0.000018 3.753634 -9.024237 -13.182377 26.754728 0.000003 -0.000023 -5.113831 -15.009016 -7.886877 -0.000010 0.000022 -139.250320 14.721537 27.221632 3.202069 -0.000006 0.000014 -111.863533 18.917898 -12.226590 3.561790 0.000013 -40.132095 -17.390575 -0.000000 0.000000 0.000001 -26.754728 0.000006 -0.000022 8.381625 -20.466426 11.814503 0.000001 0.000029 -139.250366 1.907341 36.115937 -6.362469 0.000003 0.000032 -111.863548 -1.559014 -19.343837 -6.126412 -0.000002 -40.132092 -17.390575 -0.000000 0.000000 -0.000000 
-11.916795 25.660112 249.753586 85.487160 9.559250 -2.970306 -0.000001 -0.000005 21.938858 -6.542563 -8.404286 -0.507823 0.000003 -0.000008 49.643215 -2.133056 0.183386 -12.210181 -0.000003 -0.000017 54.994186 -28.920746 15.923008 22.753660 0.000012 -5.350960 41.469826 -28.657384 12.198375 -35.863636 10.679564 1.167092 44.871452 -10.209243 0.995287 -16.176101 30.952627 -0.000002 -0.000001 -1.205440 15.434479 10.029399 80.268623 0.000038 0.000026 0.261284 -26.249438 -14.289344 71.790100 -0.000009 0.000013 -2.102588 -26.866583 37.954098 -10.701400 1.167093 44.871437 -6.145321 6.790661 7.587585 -30.952646 0.000003 -0.000027 16.172537 19.180257 -34.601284 -80.268639 -0.000030 0.000026 68.521264 6.456850 24.266016 -71.790070 -0.000022 -0.000017 3.522035 -10.852424 -15.610052 26.754726 0.000001 -0.000004 -4.836630 -14.682240 -7.487597 -0.000010 0.000019 -139.250305 14.968696 26.401914 3.036169 -0.000005 0.000023 -111.863548 18.852589 -12.166724 3.088899 0.000001 -40.132088 -17.390575 0.000002 -0.000001 -0.000002 -26.754726 -0.000003 -0.000016 8.615572 -20.305036 11.984328 0.000003 0.000030 -139.250336 1.747833 35.719847 -6.151891 0.000001 0.000021 -111.863564 -1.490693 -18.928090 -6.423714 0.000001 -40.132080 -17.390575 -0.000000 0.000001 0.000000 
-11.966734 26.583782 250.061142 85.338576 9.534926 -2.916459 -0.000002 0.000005 21.938890 -6.570217 -8.415990 -0.614903 -0.000000 -0.000005 49.643181 -2.150431 0.083562 -11.901861 -0.000005 -0.000008 54.994156 -28.978724 16.053682 22.824073 0.000002 -5.350981 41.469856 -28.802983 11.728087 -36.024071 10.679578 1.167097 44.871437 -10.250334 1.094956 -16.286487 30.952646 -0.000005 -0.000003 -1.246566 15.367313 10.041986 80.268616 0.000026 0.000038 0.327263 -26.301081 -14.252991 71.790054 -0.000004 -0.000017 -2.104441 -26.911608 37.974458 -10.701393 1.167097 44.871437 -5.919674 6.453712 7.800185 -30.952639 0.000004 -0.000010 15.714657 19.297163 -34.312989 -80.268600 -0.000007 0.000035 69.337690 6.528297 26.442423 -71.790085 -0.000008 -0.000017 3.360273 -12.680904 -18.184595 26.754723 0.000007 -0.000001 -4.528174 -14.418509 -7.112819 -0.000005 0.000020 -139.250320 14.995311 25.735752 2.881561 -0.000007 0.000028 -111.863564 18.854170 -12.061476 2.823178 -0.000006 -40.132092 -17.390575 -0.000005 -0.000002 -0.000000 -26.754728 0.000006 -0.000013 8.822052 -20.138632 12.112208 -0.000000 0.000033 -139.250351 1.487824 35.348268 -5.861104 0.000005 0.000028 -111.863548 -1.350271 -18.478484 -6.665061 0.000000 -40.132080 -17.390575 -0.000000 0.000000 0.000000 
-12.048882 27.523033 250.342636 85.204704 9.514718 -2.860943 -0.000003 0.000001 21.938868 -6.594934 -8.401101 -0.732591 -0.000004 -0.000008 49.643196 -2.170477 -0.059572 -11.582029 0.000002 -0.000008 54.994129 -29.052257 16.177561 22.921818 0.000009 -5.350957 41.469818 -28.949029 11.315596 -36.195262 10.679574 1.167096 44.871361 -10.282299 1.204562 -16.380788 30.952644 0.000013 -0.000035 -1.271155 15.181291 9.999734 80.268600 0.000005 0.000025 0.361541 -26.291860 -14.182503 71.790092 0.000005 0.000017 -2.059334 -26.885518 38.005857 -10.701390 1.167097 44.871376 -5.847107 6.291946 8.060307 -30.952646 0.000004 -0.000082 15.270795 18.984284 -33.946378 -80.268631 -0.000018 -0.000011 70.044321 6.680071 28.466203 -71.790070 0.000005 0.000000 3.164285 -14.323130 -20.698219 26.754726 0.000007 0.000007 -4.140427 -14.235629 -6.749196 0.000004 0.000026 -139.250320 14.798025 25.153478 2.752375 0.000008 0.000019 -111.863594 18.891559 -11.911583 2.778807 -0.000001 -40.132088 -17.390575 -0.000002 -0.000001 -0.000002 -26.754730 0.000003 -0.000025 9.055367 -19.975175 12.249675 -0.000000 0.000023 -139.250351 1.043065 34.991530 -5.488109 -0.000002 0.000028 -111.863533 -1.106519 -18.041058 -6.915550 0.000001 -40.132088 -17.390575 0.000000 0.000000 0.000000 
-12.138041 28.464300 250.630280 85.090818 9.495777 -2.820804 -0.000001 -0.000001 21.938885 -6.600419 -8.446697 -0.738392 0.000002 -0.000007 49.643234 -2.175726 -0.097466 -11.415281 0.000004 -0.000013 54.994129 -29.134530 16.213465 22.976384 0.000007 -5.350999 41.469860 -29.127345 10.902867 -36.284943 10.679585 1.167094 44.871452 -10.395027 1.245567 -16.430865 30.952620 0.000000 -0.000001 -1.397984 15.378760 10.048867 80.268623 -0.000009 0.000036 0.532904 -26.455807 -14.198952 71.790077 0.000010 -0.000028 -2.060285 -27.031703 38.109112 -10.701380 1.167096 44.871445 -5.763271 6.052913 8.349000 -30.952639 0.000004 -0.000001 15.203082 18.960112 -33.737098 -80.268578 0.000001 0.000002 70.204782 6.920655 31.245909 -71.790070 -0.000015 -0.000011 2.941335 -16.276691 -23.574217 26.754726 0.000002 0.000016 -3.819581 -14.103265 -6.413032 -0.000005 0.000027 -139.250320 14.564011 24.745535 2.649328 0.000003 0.000015 -111.863564 18.928640 -11.735203 2.936715 0.000012 -40.132092 -17.390575 0.000001 -0.000001 -0.000001 -26.754728 0.000002 0.000021 9.316751 -19.778396 12.415435 -0.000000 0.000037 -139.250351 0.777353 34.583498 -5.240501 0.000001 0.000024 -111.863556 -1.003290 -17.691693 -6.974586 -0.000003 -40.132080 -17.390577 0.000000 0.000003 -0.000000 
